<?xml version="1.0" standalone="no"?>
<!DOCTYPE svg PUBLIC "-//W3C//DTD SVG 20010904//EN"
 "http://www.w3.org/TR/2001/REC-SVG-20010904/DTD/svg10.dtd">
<svg version="1.0" xmlns="http://www.w3.org/2000/svg"
 width="436.000000pt" height="742.000000pt" viewBox="0 0 436.000000 742.000000"
 preserveAspectRatio="xMidYMid meet">

<g transform="translate(0.000000,742.000000) scale(0.100000,-0.100000)"
fill="#000000" stroke="none">
<path d="M1259 6020 c-25 -4 -72 -23 -103 -40 -127 -72 -207 -191 -232 -345
-7 -44 -22 -125 -33 -180 -11 -55 -34 -174 -51 -265 -30 -160 -39 -202 -95
-455 -50 -226 -119 -504 -181 -735 -13 -47 -33 -121 -44 -165 -29 -108 -97
-337 -169 -570 -68 -216 -85 -269 -126 -385 -13 -36 -47 -132 -76 -215 -28
-82 -62 -175 -75 -207 -56 -134 -51 -211 15 -271 32 -28 50 -36 117 -46 115
-18 114 -17 114 -57 0 -42 23 -101 53 -132 35 -38 75 -53 153 -59 l74 -6 0
-35 c0 -20 -5 -64 -11 -99 -10 -54 -9 -71 5 -108 10 -24 31 -55 49 -68 18 -14
48 -39 67 -57 77 -70 61 -68 551 -79 244 -6 698 -15 1009 -21 311 -6 583 -12
605 -15 22 -2 132 -5 245 -6 192 -2 207 -1 239 18 61 38 70 65 81 256 6 94 19
300 30 457 11 157 24 373 30 480 6 107 15 242 20 300 5 58 16 233 25 390 8
157 22 375 30 485 8 110 19 286 25 390 6 105 17 280 25 390 13 172 30 441 51
825 6 99 -6 151 -40 180 -9 7 -16 25 -16 41 0 98 -60 232 -133 294 -163 142
-383 144 -539 6 -25 -22 -48 -41 -50 -41 -3 0 -24 18 -47 39 -147 135 -361
139 -524 10 l-49 -38 -35 34 c-55 54 -138 96 -211 107 -125 19 -237 -14 -343
-103 l-36 -30 -34 31 c-97 89 -221 123 -360 100z m226 -78 c33 -16 77 -44 97
-63 l37 -35 -22 -47 c-25 -53 -38 -58 -57 -22 -7 14 -36 40 -64 57 -41 27 -62
33 -118 36 -58 4 -76 0 -123 -22 -93 -46 -154 -146 -155 -252 0 -50 6 -73 31
-120 36 -69 74 -104 146 -136 29 -13 53 -27 53 -32 0 -6 -10 -20 -22 -33 -60
-64 -203 23 -275 167 -25 49 -28 66 -28 155 0 88 4 107 28 157 35 73 116 153
192 189 50 24 73 29 140 29 67 0 90 -5 140 -28z m650 -14 c33 -20 71 -48 84
-61 l23 -26 -22 -45 c-12 -25 -25 -46 -28 -46 -4 0 -24 18 -46 41 -100 107
-257 107 -361 1 -62 -63 -80 -106 -80 -197 0 -69 4 -86 27 -125 38 -64 84
-105 150 -135 50 -23 57 -29 48 -45 -39 -73 -100 -64 -206 32 -76 70 -118 158
-122 259 -4 67 0 85 28 151 38 93 108 167 195 210 56 27 66 29 155 25 88 -3
99 -6 155 -39z m569 6 c60 -24 162 -105 154 -122 -2 -4 -12 -26 -22 -49 -16
-38 -36 -57 -36 -35 0 14 -55 69 -97 96 -158 105 -383 -40 -383 -245 1 -124
74 -222 203 -268 33 -13 34 -25 2 -56 -41 -42 -97 -28 -180 48 -86 76 -145
219 -130 310 43 255 274 407 489 321z m625 1 c134 -52 208 -145 235 -293 6
-33 5 -33 -24 -27 -56 12 -90 35 -90 60 0 36 -62 116 -115 149 -98 60 -218 42
-302 -47 -84 -88 -106 -211 -57 -310 38 -75 107 -137 168 -153 38 -9 43 -30
16 -60 -41 -43 -102 -27 -186 49 -135 122 -163 334 -63 481 102 152 266 211
418 151z m-1885 -147 c34 -24 96 -101 96 -120 0 -5 -88 -8 -195 -8 -138 0
-195 3 -195 11 0 36 75 115 132 139 40 17 120 6 162 -22z m626 -3 c35 -24 90
-97 90 -118 0 -4 -88 -7 -195 -7 -107 0 -195 2 -195 5 0 21 45 86 74 108 51
39 75 47 133 44 37 -3 64 -12 93 -32z m590 -2 c49 -26 122 -105 108 -118 -3
-3 -89 -4 -192 -3 l-187 3 29 43 c16 24 47 54 70 67 74 42 102 43 172 8z m626
3 c51 -23 95 -70 108 -113 l7 -21 -183 5 c-101 2 -187 5 -191 7 -18 4 52 89
91 111 72 41 100 43 168 11z m-1746 -183 c0 -5 4 -35 10 -68 12 -77 44 -147
97 -213 24 -30 43 -60 43 -68 0 -27 71 -94 113 -105 151 -40 278 112 208 249
-38 75 -108 111 -190 98 -35 -5 -40 -4 -49 22 -35 94 -39 92 193 92 l192 0 6
-64 c7 -76 46 -174 91 -230 18 -23 38 -55 45 -72 61 -153 290 -142 332 16 33
123 -59 236 -186 228 -44 -3 -51 0 -62 22 -16 32 -17 87 0 92 6 2 99 3 206 3
l195 0 12 -70 c14 -82 37 -144 76 -201 15 -23 28 -52 28 -65 0 -12 11 -41 25
-64 58 -100 205 -110 284 -20 35 40 46 87 36 152 -12 80 -94 143 -187 143 -31
0 -43 17 -53 78 l-7 42 169 0 169 0 34 -35 33 -34 -7 -128 c-3 -70 -11 -157
-16 -193 -5 -36 -19 -143 -30 -239 -11 -95 -23 -177 -26 -182 -2 -5 -24 -6
-47 -4 -209 25 -647 37 -1502 41 -511 3 -935 7 -941 9 -7 2 1 59 23 167 35
170 83 418 83 431 0 20 19 3 31 -28 15 -38 86 -129 156 -200 80 -83 192 -71
264 29 24 32 29 49 29 96 0 47 -5 64 -30 98 -44 61 -74 77 -139 75 -31 -1 -65
-3 -76 -5 -15 -2 -23 6 -34 38 -26 75 -28 74 199 74 110 0 200 -3 200 -7z
m-240 -195 c24 -15 30 -23 20 -25 -21 -5 -90 24 -90 37 0 17 33 11 70 -12z
m620 -18 c0 -5 -13 -3 -30 3 -16 6 -30 15 -30 19 0 4 14 2 30 -3 17 -6 30 -15
30 -19z m604 -1 c5 -5 7 -11 4 -14 -7 -8 -58 16 -58 27 0 10 40 1 54 -13z
m266 -609 c226 -8 519 -27 527 -34 2 -2 -34 -255 -50 -346 l-14 -75 -184 2
c-101 1 -308 7 -459 13 -413 16 -1120 30 -1522 30 -247 0 -359 3 -364 11 -3 6
3 48 15 92 37 146 71 294 71 312 0 17 40 18 853 11 468 -3 976 -11 1127 -16z
m-680 -460 c577 -12 1123 -30 1132 -39 3 -3 0 -37 -7 -76 -7 -38 -22 -126 -34
-195 -12 -69 -25 -133 -28 -144 -6 -21 -33 -20 -903 9 -228 8 -633 19 -900 25
-560 11 -761 17 -766 23 -2 2 7 44 21 92 15 49 31 112 36 139 6 28 20 82 31
120 l21 69 466 -7 c256 -3 675 -11 931 -16z m1156 -367 c-9 -81 -19 -172 -22
-201 -7 -55 -13 -66 -37 -56 -13 5 -13 13 0 67 7 34 23 114 34 177 31 171 31
171 36 166 3 -2 -2 -71 -11 -153z m-1646 -93 c365 -9 1254 -35 1462 -43 37 -1
69 -5 72 -7 4 -5 -15 -109 -57 -315 l-23 -110 -260 3 c-260 3 -609 13 -1104
32 -146 5 -438 14 -650 20 -212 5 -432 13 -488 16 -100 6 -103 7 -97 28 8 26
45 154 74 261 12 44 27 93 33 109 l12 29 300 -7 c166 -3 492 -11 726 -16z
m1607 -252 c-18 -178 -49 -373 -59 -379 -9 -6 -65 -2 -75 5 -1 1 8 44 21 96
13 52 33 142 46 200 28 136 26 130 51 130 20 0 21 -4 16 -52z m-2307 -198
c146 -5 438 -14 650 -20 212 -5 500 -15 640 -21 140 -6 386 -13 547 -17 160
-4 294 -9 296 -12 3 -3 -6 -52 -19 -110 -13 -58 -33 -145 -44 -194 -26 -111
-34 -126 -68 -126 -126 0 -929 23 -1212 35 -195 8 -537 22 -760 31 -223 8
-452 19 -510 22 -104 7 -105 7 -102 32 2 19 66 230 118 389 3 11 24 12 102 7
53 -3 216 -11 362 -16z m2325 -247 c-4 -29 -11 -53 -17 -53 -10 0 -7 54 10
175 l7 50 3 -60 c2 -33 1 -84 -3 -112z m-75 24 c0 -1 -9 -68 -20 -147 -25
-177 -40 -262 -51 -275 -4 -5 -33 -8 -64 -7 l-56 4 6 41 c4 23 11 49 15 57 4
8 24 86 45 173 l38 157 43 0 c24 0 44 -1 44 -3z m61 -314 c-15 -235 -14 -233
-57 -233 -19 0 -34 2 -34 5 0 3 6 38 14 78 19 93 33 186 41 267 8 69 21 98 38
81 6 -6 6 -76 -2 -198z m-2576 82 c138 -8 387 -19 555 -25 168 -5 415 -15 550
-20 425 -18 839 -30 1014 -30 l169 0 -7 -40 c-6 -41 -37 -157 -84 -312 l-26
-88 -110 0 c-177 0 -1115 29 -1296 40 -91 5 -275 14 -410 20 -416 18 -827 43
-835 51 -3 3 20 77 51 165 30 87 62 180 70 207 l15 47 47 0 c26 0 160 -7 297
-15z m2439 -272 c-3 -21 -16 -96 -29 -168 -13 -71 -27 -151 -31 -178 -3 -26
-10 -50 -16 -53 -5 -3 -46 -3 -92 1 l-83 7 42 147 c23 80 50 176 60 214 l17
67 68 0 69 0 -5 -37z m110 -81 c5 -9 -21 -382 -29 -420 -5 -21 -9 -22 -58 -16
-28 4 -53 7 -54 8 -1 1 9 67 23 146 13 80 30 175 36 212 9 55 15 68 32 71 37
7 45 7 50 -1z m-2809 -102 c66 -5 253 -16 415 -24 277 -14 451 -22 1000 -46
124 -6 397 -14 608 -19 210 -4 385 -11 389 -15 9 -8 -52 -219 -79 -270 -21
-42 -62 -76 -112 -92 -44 -15 -82 -16 -316 -10 -146 3 -364 11 -485 16 -240
11 -921 64 -1025 80 -36 5 -132 17 -215 26 -82 8 -188 21 -235 29 -47 8 -108
17 -136 20 -39 5 -60 14 -83 37 -41 40 -41 87 1 196 l32 82 60 -1 c34 0 115
-4 181 -9z m2615 -268 c0 -44 -41 -224 -56 -249 -35 -56 -78 -93 -128 -109
-44 -15 -85 -16 -356 -10 -400 9 -1142 34 -1345 46 -88 5 -250 14 -360 20
-293 16 -300 17 -340 52 -38 33 -66 101 -48 119 8 8 52 6 149 -6 77 -9 175
-20 219 -25 44 -5 157 -16 250 -25 94 -8 217 -19 275 -25 210 -19 841 -50
1090 -53 l255 -2 50 27 c28 14 60 37 71 50 28 30 62 98 80 160 l15 48 89 0
c79 0 90 -2 90 -18z m152 -152 c-2 -25 -9 -91 -16 -146 -11 -84 -18 -109 -44
-146 -37 -54 -93 -94 -150 -106 -43 -10 -668 6 -1142 28 -124 6 -405 17 -625
24 -374 13 -403 15 -436 35 -39 23 -79 72 -79 96 0 18 40 19 210 5 237 -19
1308 -59 1670 -62 260 -3 266 -3 317 21 88 39 153 128 167 225 12 77 12 77 75
74 l56 -3 -3 -45z"/>
</g>
</svg>
